<?xml version="1.0" encoding="iso-8859-1"?>
<!-- Generator: Adobe Illustrator 18.0.0, SVG Export Plug-In . SVG Version: 6.00 Build 0)  -->
<!DOCTYPE svg PUBLIC "-//W3C//DTD SVG 1.1//EN" "http://www.w3.org/Graphics/SVG/1.1/DTD/svg11.dtd">
<svg version="1.1" id="Capa_1" xmlns="http://www.w3.org/2000/svg" xmlns:xlink="http://www.w3.org/1999/xlink" x="0px" y="0px"
	 viewBox="0 0 287.321 287.321" style="enable-background:new 0 0 287.321 287.321;" xml:space="preserve">
<g>
	<path d="M143.66,165.679c-15.469,0-28.052,12.796-28.052,28.521v64.6c0,15.727,12.583,28.521,28.052,28.521
		c15.469,0,28.052-12.795,28.052-28.521v-64.6C171.711,178.475,159.128,165.679,143.66,165.679z"/>
	<path d="M230.82,0h-34.865c-5.579,0-10.102,4.523-10.102,10.102c0,5.657-16.019,16.046-42.192,16.046
		c-26.175,0-42.193-10.389-42.193-16.046C101.466,4.523,96.943,0,91.364,0H56.501C50.923,0,46.4,4.523,46.4,10.102v15.319
		c0,5.579,4.523,10.102,10.102,10.102c5.579,0,10.103-4.522,10.103-10.102v-5.217h16.92c6.326,13.629,25.368,23.567,50.033,25.711
		v26.057h-24.762c-4.685,0-8.755,3.222-9.831,7.781c-1.076,4.56,1.123,9.262,5.314,11.356l29.278,14.641v26.338
		c-27.314,2.951-48.653,26.141-48.653,54.227V224.5H73.933c-5.579,0-10.103,4.523-10.103,10.102c0,5.578,4.523,10.102,10.103,10.102
		h10.971v7.33c0,5.579,4.523,10.102,10.102,10.102c5.578,0,10.102-4.522,10.102-10.102v-65.72c0-18.938,15.408-34.346,34.348-34.346
		h8.408c18.939,0,34.348,15.407,34.348,34.346v65.72c0,5.579,4.523,10.102,10.102,10.102c5.579,0,10.103-4.522,10.103-10.102
		v-42.192h10.971c5.579,0,10.103-4.523,10.103-10.102s-4.523-10.103-10.103-10.103h-10.971v-3.322
		c0-28.086-21.339-51.275-48.654-54.227V105.75l29.279-14.641c4.191-2.095,6.391-6.797,5.314-11.356
		c-1.076-4.56-5.146-7.781-9.831-7.781h-24.763V45.915c24.665-2.144,43.707-12.082,50.033-25.711h16.923v5.217
		c0,5.579,4.523,10.102,10.103,10.102c5.578,0,10.102-4.522,10.102-10.102V10.102C240.921,4.523,236.398,0,230.82,0z"/>
</g>
<g>
</g>
<g>
</g>
<g>
</g>
<g>
</g>
<g>
</g>
<g>
</g>
<g>
</g>
<g>
</g>
<g>
</g>
<g>
</g>
<g>
</g>
<g>
</g>
<g>
</g>
<g>
</g>
<g>
</g>
</svg>
