<?xml version="1.0" encoding="UTF-8" standalone="no"?>
<!-- Created with Inkscape (http://www.inkscape.org/) -->

<svg
   xmlns:dc="http://purl.org/dc/elements/1.1/"
   xmlns:cc="http://creativecommons.org/ns#"
   xmlns:rdf="http://www.w3.org/1999/02/22-rdf-syntax-ns#"
   xmlns:svg="http://www.w3.org/2000/svg"
   xmlns="http://www.w3.org/2000/svg"
   xmlns:sodipodi="http://sodipodi.sourceforge.net/DTD/sodipodi-0.dtd"
   xmlns:inkscape="http://www.inkscape.org/namespaces/inkscape"
   inkscape:export-ydpi="300"
   inkscape:export-xdpi="300"
   inkscape:export-filename="C:\Users\Bartolomé\Desktop\ispp\Logo Shipmee\cajalogoV2.png"
   sodipodi:docname="CajaLetraV2Circulo2.svg"
   inkscape:version="0.91 r13725"
   version="1.1"
   id="svg8415"
   viewBox="0 0 48.014384 48.014388"
   height="13.550727mm"
   width="13.550727mm">
  <defs
     id="defs8417" />
  <sodipodi:namedview
     inkscape:window-maximized="1"
     inkscape:window-y="-9"
     inkscape:window-x="-9"
     inkscape:window-height="1001"
     inkscape:window-width="1920"
     fit-margin-bottom="0"
     fit-margin-right="0"
     fit-margin-left="0"
     fit-margin-top="0"
     showgrid="false"
     inkscape:current-layer="layer1"
     inkscape:document-units="px"
     inkscape:cy="10.570401"
     inkscape:cx="33.999184"
     inkscape:zoom="5.6"
     inkscape:pageshadow="2"
     inkscape:pageopacity="0.0"
     borderopacity="1.0"
     bordercolor="#666666"
     pagecolor="#ffffff"
     id="base"
     guidecolor="#000dff"
     guideopacity="0.49803922"
     showguides="false" />
  <metadata
     id="metadata8420">
    <rdf:RDF>
      <cc:Work
         rdf:about="">
        <dc:format>image/svg+xml</dc:format>
        <dc:type
           rdf:resource="http://purl.org/dc/dcmitype/StillImage" />
        <dc:title></dc:title>
      </cc:Work>
    </rdf:RDF>
  </metadata>
  <g
     inkscape:label="Capa 1"
     inkscape:groupmode="layer"
     id="layer1"
     transform="translate(-168.16195,-420.23139)">
    <circle
       style="color:#000000;clip-rule:nonzero;display:inline;overflow:visible;visibility:visible;opacity:0.86000001;isolation:auto;mix-blend-mode:normal;color-interpolation:sRGB;color-interpolation-filters:linearRGB;solid-color:#000000;solid-opacity:1;fill:#ffffff;fill-opacity:1;fill-rule:nonzero;stroke:none;stroke-width:1px;stroke-linecap:butt;stroke-linejoin:miter;stroke-miterlimit:4;stroke-dasharray:none;stroke-dashoffset:0;stroke-opacity:1;color-rendering:auto;image-rendering:auto;shape-rendering:auto;text-rendering:auto;enable-background:accumulate"
       id="path4203"
       cx="192.16914"
       cy="444.23859"
       r="24.007193" />
    <g
       id="g4171"
       transform="matrix(0.14481458,0,0,0.14481458,153.22899,367.60027)">
      <g
         inkscape:export-ydpi="300"
         inkscape:export-xdpi="300"
         id="g4159-8-5-1"
         transform="matrix(1.8347951,0,0,1.8347951,167.42814,385.70774)">
        <g
           id="g4161-2-5-7">
          <g
             id="g4163-4-4-6">
            <g
               id="g4165-4-6-0">
              <path
                 id="path4167-9-6-2"
                 d="m 14.7,95.1 47.7,20 c 1.1,0.5 2.3,0.5 3.4,0 l 47.7,-20.2 c 1.6,-0.7 2.6,-2.2 2.6,-4 l 0,-54 c 0,-1.7 -1,-3.3 -2.7,-4 l -47.7,-20 c -1.1,-0.5 -2.3,-0.5 -3.4,0 L 14.6,33.1 C 13,33.7 12,35.3 12,37 l 0,54.1 c 0,1.8 1,3.3 2.7,4 z"
                 inkscape:connector-curvature="0"
                 style="fill:#ffffff" />
            </g>
          </g>
        </g>
        <g
           id="g4169-8-3-4">
          <g
             id="g4171-1-1-5">
            <g
               id="g4173-4-8-1">
              <path
                 id="path4175-7-1-8"
                 d="m 114.8,34.9 -51,21.7 0,54.9 c 0,1.9 1.9,3.1 3.6,2.4 l 47,-19.6 c 1,-0.4 1.6,-1.3 1.6,-2.4 l 0,-56.2 c 0,-0.6 -0.6,-1 -1.2,-0.8 z"
                 inkscape:connector-curvature="0"
                 style="fill:#c7d7e2" />
            </g>
          </g>
        </g>
        <g
           id="g4177-7-69-2">
          <g
             id="g4179-56-1-2">
            <g
               id="g4181-3-23-2">
              <g
                 id="g4183-0-2-2">
                <path
                   id="path4185-2-4-2"
                   d="m 64,118.5 0,0 c -1,0 -1.9,-0.2 -2.8,-0.6 L 13.5,97.9 C 10.8,96.7 9,94.1 9,91.1 L 9,37 c 0,-2.9 1.8,-5.6 4.5,-6.7 L 61.2,10.1 c 1.8,-0.8 3.9,-0.8 5.7,0 l 47.7,20 c 2.7,1.1 4.5,3.8 4.5,6.7 l 0,54.2 c 0,2.9 -1.8,5.6 -4.5,6.7 l -47.7,20.2 c -1,0.4 -1.9,0.6 -2.9,0.6 z m 0,-103 c -0.2,0 -0.4,0 -0.5,0.1 L 15.8,35.8 C 15.3,36 15,36.5 15,37 l 0,54.1 c 0,0.5 0.3,1 0.8,1.2 l 47.7,20 c 0.3,0.1 0.7,0.1 1,0 l 47.7,-20.2 c 0.5,-0.2 0.8,-0.7 0.8,-1.2 l 0,-54 c 0,-0.5 -0.3,-1 -0.8,-1.2 L 64.5,15.7 C 64.4,15.6 64.2,15.5 64,15.5 Z"
                   inkscape:connector-curvature="0"
                   style="fill:#083d5d;fill-opacity:1" />
              </g>
            </g>
          </g>
          <g
             id="g4187-8-0-0">
            <g
               id="g4189-2-1-7">
              <g
                 id="g4191-35-37-0">
                <path
                   id="path4193-7-7-5"
                   d="m 89.9,48.5 c -1.2,0 -2.3,-0.7 -2.8,-1.8 -0.7,-1.5 0,-3.3 1.6,-3.9 L 113.6,32 c 1.5,-0.7 3.3,0 3.9,1.6 0.7,1.5 0,3.3 -1.6,3.9 L 91.1,48.3 c -0.4,0.2 -0.8,0.2 -1.2,0.2 z"
                   inkscape:connector-curvature="0"
                   style="fill:#083d5d;fill-opacity:1" />
              </g>
            </g>
          </g>
          <g
             id="g4195-8-5-9">
            <g
               id="g4197-1-2-2">
              <g
                 id="g4199-1-7-6">
                <path
                   id="path4201-5-1-1"
                   d="m 64,117.1 c -1.7,0 -3,-1.3 -3,-3 L 60.9,59 c 0,-0.5 -0.3,-1 -0.8,-1.2 l -48,-20.3 c -1.5,-0.6 -2.2,-2.4 -1.6,-3.9 0.6,-1.5 2.4,-2.2 3.9,-1.6 l 48,20.3 c 2.7,1.1 4.5,3.8 4.5,6.7 l 0.1,55.1 c 0,1.7 -1.3,3 -3,3 0,0 0,0 0,0 z"
                   inkscape:connector-curvature="0"
                   style="fill:#083d5d;fill-opacity:1" />
              </g>
            </g>
          </g>
          <g
             id="g4203-7-7-6">
            <g
               id="g4205-8-9-1">
              <g
                 id="g4207-7-5-8">
                <path
                   id="path4209-3-40-4"
                   d="m 37.9,56.8 c -1.7,0 -3,-1.3 -3,-3 l 0,-5.8 c 0,-2.9 1.8,-5.6 4.5,-6.7 l 49.3,-21 c 1.5,-0.7 3.3,0.1 3.9,1.6 0.6,1.5 -0.1,3.3 -1.6,3.9 l -49.3,21 C 41.2,47 40.9,47.5 40.9,48 l 0,5.8 c 0,1.6 -1.3,3 -3,3 z"
                   inkscape:connector-curvature="0"
                   style="fill:#083d5d;fill-opacity:1" />
              </g>
            </g>
          </g>
        </g>
      </g>
      <path
         inkscape:export-ydpi="300"
         inkscape:export-xdpi="300"
         id="path4193-6-9-2-2"
         d="m 150.15296,585.50143 c -1.19995,-0.54885 -2.1357,-2.29559 -2.37764,-4.4785 -0.34809,-2.98535 0.77409,-5.86311 2.51474,-6.19724 l 27.43194,-7.79936 c 1.66411,-0.55741 3.29981,1.50957 3.52448,4.62659 0.3481,2.98513 -0.77408,5.86311 -2.51472,6.19724 l -27.33194,7.84495 c -0.44693,0.17354 -0.8469,0 -1.24686,-0.19437 z"
         inkscape:connector-curvature="0"
         style="fill:#083d5d;fill-opacity:1" />
      <path
         inkscape:export-ydpi="300"
         inkscape:export-xdpi="300"
         id="path4193-6-7-5-0-9"
         d="m 163.57184,613.38681 c -2.30336,-0.16659 -4.28931,-1.60143 -5.05187,-3.68645 -1.07477,-2.84583 0.59152,-6.04777 3.77022,-6.92565 l 49.73089,-16.34495 c 3.0047,-1.07525 6.33426,0.45675 7.19919,3.47219 1.07475,2.84583 -0.59154,6.04753 -3.77022,6.92565 l -49.53898,16.35883 c -0.80362,0.31122 -1.57146,0.25545 -2.33923,0.20131 z"
         inkscape:connector-curvature="0"
         style="fill:#083d5d;fill-opacity:1" />
      <path
         inkscape:export-ydpi="300"
         inkscape:export-xdpi="300"
         id="path4193-6-6-5-0-7"
         d="m 173.00371,648.18815 c -3.80438,0.45976 -7.05111,-0.4725 -8.25814,-2.40805 -1.7036,-2.63225 1.13438,-6.38073 6.41318,-8.15361 l 82.65382,-30.4198 c 4.99616,-1.92814 10.4621,-1.26406 11.81428,1.60005 1.70359,2.63226 -1.1344,6.38073 -6.4132,8.15362 l -82.3368,30.38161 c -1.33683,0.53982 -2.605,0.693 -3.87314,0.84618 z"
         inkscape:connector-curvature="0"
         style="fill:#083d5d;fill-opacity:1" />
      <path
         inkscape:connector-curvature="0"
         id="path10372"
         d="m 303.74297,567.73095 c -0.91324,-0.38844 -1.73673,-1.22789 -2.32995,-2.37509 -0.99471,-1.9237 -0.88294,-4.81121 0.54957,-14.19781 l 0.40106,-2.62795 11.03804,-4.47745 c 6.07091,-2.46261 11.10944,-4.47746 11.19671,-4.47746 0.0873,0 -0.15305,2.8013 -0.53406,6.22508 -0.38102,3.42381 -0.66677,6.30003 -0.63502,6.39161 0.0767,0.22115 14.3116,-5.48836 14.51859,-5.82329 0.0885,-0.14317 0.4207,-3.00357 0.73825,-6.35644 0.31755,-3.35287 0.7335,-7.6807 0.92434,-9.6174 0.65352,-6.63202 0.70329,-7.67132 0.36742,-7.67132 -0.17041,0 -6.32591,2.44819 -13.6789,5.44041 -8.32457,3.38762 -13.93973,5.53564 -14.8815,5.69279 -1.90357,0.31763 -3.33184,-0.0381 -4.38603,-1.09224 -0.80109,-0.8011 -1.52801,-2.77455 -1.52801,-4.14827 0,-1.21441 2.69045,-19.5899 3.16441,-21.6126 1.13736,-4.8538 4.96221,-9.81536 9.36688,-12.15053 2.17267,-1.15187 37.60793,-15.85735 39.22716,-16.27911 0.77972,-0.2031 1.82442,-0.36926 2.32154,-0.36926 1.23764,0 3.27284,1.07265 3.95767,2.08588 0.69398,1.02677 1.15451,3.36858 0.96903,4.92743 -0.076,0.63858 -0.209,2.8588 -0.29559,4.93383 -0.0866,2.07503 -0.2334,3.85437 -0.32622,3.95408 -0.18892,0.20294 -21.48311,9.01149 -21.57139,8.92321 -0.0308,-0.0308 0.16863,-2.47232 0.44339,-5.42538 0.27476,-2.95306 0.45305,-5.41572 0.39618,-5.47259 -0.0912,-0.0911 -13.17912,5.27333 -13.37822,5.48346 -0.0431,0.0455 -0.59961,4.55352 -1.23661,10.01778 -0.637,5.46424 -1.21943,10.30283 -1.2943,10.75242 -0.0769,0.46214 -0.0282,0.81743 0.11219,0.81743 0.13656,0 6.05372,-2.38062 13.14926,-5.29027 7.09553,-2.90964 13.54161,-5.45627 14.32461,-5.65917 2.87394,-0.74471 4.98233,-0.25287 6.42651,1.49915 1.51211,1.83446 1.5883,2.9058 0.96724,13.60035 -0.63684,10.9661 -0.84386,13.2312 -1.37934,15.09112 -1.46505,5.08873 -4.85547,9.41788 -9.31648,11.89602 -0.76083,0.42265 -10.77757,4.52475 -22.2594,9.11576 -20.39917,8.15661 -20.92202,8.34952 -22.88821,8.44526 -1.10668,0.0539 -2.29505,-0.0223 -2.64082,-0.16944 z"
         style="fill:#083d5d;fill-opacity:1" />
    </g>
  </g>
</svg>
