<?xml version="1.0" encoding="UTF-8" standalone="no"?>
<!-- Created with Inkscape (http://www.inkscape.org/) -->

<svg
   xmlns:dc="http://purl.org/dc/elements/1.1/"
   xmlns:cc="http://creativecommons.org/ns#"
   xmlns:rdf="http://www.w3.org/1999/02/22-rdf-syntax-ns#"
   xmlns:svg="http://www.w3.org/2000/svg"
   xmlns="http://www.w3.org/2000/svg"
   xmlns:sodipodi="http://sodipodi.sourceforge.net/DTD/sodipodi-0.dtd"
   xmlns:inkscape="http://www.inkscape.org/namespaces/inkscape"
   width="156.06517mm"
   height="29.902781mm"
   viewBox="0 0 552.98682 105.95473"
   id="svg4419"
   version="1.1"
   inkscape:version="0.91 r13725"
   sodipodi:docname="LogoCompleto.svg">
  <defs
     id="defs4421" />
  <sodipodi:namedview
     id="base"
     pagecolor="#ffffff"
     bordercolor="#666666"
     borderopacity="1.0"
     inkscape:pageopacity="0.0"
     inkscape:pageshadow="2"
     inkscape:zoom="0.98994949"
     inkscape:cx="279.16379"
     inkscape:cy="57.568682"
     inkscape:document-units="px"
     inkscape:current-layer="layer1"
     showgrid="false"
     inkscape:window-width="1536"
     inkscape:window-height="801"
     inkscape:window-x="-8"
     inkscape:window-y="-8"
     inkscape:window-maximized="1"
     fit-margin-top="0"
     fit-margin-left="0"
     fit-margin-right="0"
     fit-margin-bottom="0" />
  <metadata
     id="metadata4424">
    <rdf:RDF>
      <cc:Work
         rdf:about="">
        <dc:format>image/svg+xml</dc:format>
        <dc:type
           rdf:resource="http://purl.org/dc/dcmitype/StillImage" />
        <dc:title />
      </cc:Work>
    </rdf:RDF>
  </metadata>
  <g
     inkscape:label="Capa 1"
     inkscape:groupmode="layer"
     id="layer1"
     transform="translate(-85.975047,-463.17316)">
    <g
       id="g7461"
       inkscape:export-xdpi="300"
       inkscape:export-ydpi="300">
      <text
         inkscape:export-ydpi="300"
         inkscape:export-xdpi="300"
         sodipodi:linespacing="125%"
         id="text4720-0-9-7-91-7"
         y="533.09943"
         x="86.965157"
         style="font-style:normal;font-weight:normal;font-size:98.71199036px;line-height:125%;font-family:sans-serif;letter-spacing:0px;word-spacing:0px;fill:#083d5d;fill-opacity:1;stroke:none;stroke-width:1px;stroke-linecap:butt;stroke-linejoin:miter;stroke-opacity:1"
         xml:space="preserve"><tspan
           style="font-style:italic;font-variant:normal;font-weight:500;font-stretch:normal;font-family:Aero;-inkscape-font-specification:'Aero Medium Italic';fill:#083d5d;fill-opacity:1"
           y="533.09943"
           x="86.965157"
           id="tspan4722-3-9-60-61-1"
           sodipodi:role="line">Ship<tspan
   id="tspan5699-4-7"
   style="fill:#969696;fill-opacity:1">mee</tspan></tspan></text>
      <g
         inkscape:export-ydpi="300"
         inkscape:export-xdpi="300"
         id="g4159-8-5-1"
         transform="matrix(0.79295486,0,0,0.79295486,544.52096,455.64009)">
        <g
           id="g4161-2-5-7">
          <g
             id="g4163-4-4-6">
            <g
               id="g4165-4-6-0">
              <path
                 id="path4167-9-6-2"
                 d="m 14.7,95.1 47.7,20 c 1.1,0.5 2.3,0.5 3.4,0 l 47.7,-20.2 c 1.6,-0.7 2.6,-2.2 2.6,-4 l 0,-54 c 0,-1.7 -1,-3.3 -2.7,-4 l -47.7,-20 c -1.1,-0.5 -2.3,-0.5 -3.4,0 L 14.6,33.1 C 13,33.7 12,35.3 12,37 l 0,54.1 c 0,1.8 1,3.3 2.7,4 z"
                 inkscape:connector-curvature="0"
                 style="fill:#ffffff" />
            </g>
          </g>
        </g>
        <g
           id="g4169-8-3-4">
          <g
             id="g4171-1-1-5">
            <g
               id="g4173-4-8-1">
              <path
                 id="path4175-7-1-8"
                 d="m 114.8,34.9 -51,21.7 0,54.9 c 0,1.9 1.9,3.1 3.6,2.4 l 47,-19.6 c 1,-0.4 1.6,-1.3 1.6,-2.4 l 0,-56.2 c 0,-0.6 -0.6,-1 -1.2,-0.8 z"
                 inkscape:connector-curvature="0"
                 style="fill:#c7d7e2" />
            </g>
          </g>
        </g>
        <g
           id="g4177-7-69-2">
          <g
             id="g4179-56-1-2">
            <g
               id="g4181-3-23-2">
              <g
                 id="g4183-0-2-2">
                <path
                   id="path4185-2-4-2"
                   d="m 64,118.5 0,0 c -1,0 -1.9,-0.2 -2.8,-0.6 L 13.5,97.9 C 10.8,96.7 9,94.1 9,91.1 L 9,37 c 0,-2.9 1.8,-5.6 4.5,-6.7 L 61.2,10.1 c 1.8,-0.8 3.9,-0.8 5.7,0 l 47.7,20 c 2.7,1.1 4.5,3.8 4.5,6.7 l 0,54.2 c 0,2.9 -1.8,5.6 -4.5,6.7 l -47.7,20.2 c -1,0.4 -1.9,0.6 -2.9,0.6 z m 0,-103 c -0.2,0 -0.4,0 -0.5,0.1 L 15.8,35.8 C 15.3,36 15,36.5 15,37 l 0,54.1 c 0,0.5 0.3,1 0.8,1.2 l 47.7,20 c 0.3,0.1 0.7,0.1 1,0 l 47.7,-20.2 c 0.5,-0.2 0.8,-0.7 0.8,-1.2 l 0,-54 c 0,-0.5 -0.3,-1 -0.8,-1.2 L 64.5,15.7 C 64.4,15.6 64.2,15.5 64,15.5 Z"
                   inkscape:connector-curvature="0"
                   style="fill:#083d5d;fill-opacity:1" />
              </g>
            </g>
          </g>
          <g
             id="g4187-8-0-0">
            <g
               id="g4189-2-1-7">
              <g
                 id="g4191-35-37-0">
                <path
                   id="path4193-7-7-5"
                   d="m 89.9,48.5 c -1.2,0 -2.3,-0.7 -2.8,-1.8 -0.7,-1.5 0,-3.3 1.6,-3.9 L 113.6,32 c 1.5,-0.7 3.3,0 3.9,1.6 0.7,1.5 0,3.3 -1.6,3.9 L 91.1,48.3 c -0.4,0.2 -0.8,0.2 -1.2,0.2 z"
                   inkscape:connector-curvature="0"
                   style="fill:#083d5d;fill-opacity:1" />
              </g>
            </g>
          </g>
          <g
             id="g4195-8-5-9">
            <g
               id="g4197-1-2-2">
              <g
                 id="g4199-1-7-6">
                <path
                   id="path4201-5-1-1"
                   d="m 64,117.1 c -1.7,0 -3,-1.3 -3,-3 L 60.9,59 c 0,-0.5 -0.3,-1 -0.8,-1.2 l -48,-20.3 c -1.5,-0.6 -2.2,-2.4 -1.6,-3.9 0.6,-1.5 2.4,-2.2 3.9,-1.6 l 48,20.3 c 2.7,1.1 4.5,3.8 4.5,6.7 l 0.1,55.1 c 0,1.7 -1.3,3 -3,3 0,0 0,0 0,0 z"
                   inkscape:connector-curvature="0"
                   style="fill:#083d5d;fill-opacity:1" />
              </g>
            </g>
          </g>
          <g
             id="g4203-7-7-6">
            <g
               id="g4205-8-9-1">
              <g
                 id="g4207-7-5-8">
                <path
                   id="path4209-3-40-4"
                   d="m 37.9,56.8 c -1.7,0 -3,-1.3 -3,-3 l 0,-5.8 c 0,-2.9 1.8,-5.6 4.5,-6.7 l 49.3,-21 c 1.5,-0.7 3.3,0.1 3.9,1.6 0.6,1.5 -0.1,3.3 -1.6,3.9 l -49.3,21 C 41.2,47 40.9,47.5 40.9,48 l 0,5.8 c 0,1.6 -1.3,3 -3,3 z"
                   inkscape:connector-curvature="0"
                   style="fill:#083d5d;fill-opacity:1" />
              </g>
            </g>
          </g>
        </g>
      </g>
      <path
         inkscape:export-ydpi="300"
         inkscape:export-xdpi="300"
         id="path4193-6-9-2-2"
         d="m 537.05504,541.98619 c -0.51859,-0.2372 -0.923,-0.9921 -1.02756,-1.9355 -0.15044,-1.2902 0.33454,-2.5339 1.08681,-2.6783 l 11.85543,-3.3707 c 0.71919,-0.2409 1.4261,0.6524 1.5232,1.9995 0.15044,1.2901 -0.33454,2.5339 -1.0868,2.6783 l -11.81222,3.3904 c -0.19315,0.075 -0.36601,0 -0.53886,-0.084 z"
         inkscape:connector-curvature="0"
         style="fill:#083d5d;fill-opacity:1" />
      <path
         inkscape:export-ydpi="300"
         inkscape:export-xdpi="300"
         id="path4193-6-7-5-0-9"
         d="m 542.85436,554.03759 c -0.99546,-0.072 -1.85374,-0.6921 -2.1833,-1.5932 -0.46449,-1.2299 0.25564,-2.6137 1.6294,-2.9931 l 21.49251,-7.0639 c 1.29856,-0.4647 2.73752,0.1974 3.11132,1.5006 0.46448,1.2299 -0.25565,2.6136 -1.6294,2.9931 l -21.40957,7.0699 c -0.34731,0.1345 -0.67915,0.1104 -1.01096,0.087 z"
         inkscape:connector-curvature="0"
         style="fill:#083d5d;fill-opacity:1" />
      <path
         inkscape:export-ydpi="300"
         inkscape:export-xdpi="300"
         id="path4193-6-6-5-0-7"
         d="m 546.93059,569.07789 c -1.64416,0.1987 -3.04732,-0.2042 -3.56897,-1.0407 -0.73626,-1.1376 0.49025,-2.7576 2.77162,-3.5238 l 35.72102,-13.1467 c 2.15922,-0.8333 4.52147,-0.5463 5.10585,0.6915 0.73625,1.1376 -0.49026,2.7576 -2.77163,3.5238 l -35.58401,13.1302 c -0.57775,0.2333 -1.12582,0.2995 -1.67388,0.3657 z"
         inkscape:connector-curvature="0"
         style="fill:#083d5d;fill-opacity:1" />
    </g>
  </g>
</svg>
