<?xml version="1.0" encoding="iso-8859-1"?>
<!-- Generator: Adobe Illustrator 19.0.0, SVG Export Plug-In . SVG Version: 6.00 Build 0)  -->
<svg version="1.1" id="Layer_1" xmlns="http://www.w3.org/2000/svg" xmlns:xlink="http://www.w3.org/1999/xlink" x="0px" y="0px"
	 viewBox="0 0 511.999 511.999" style="enable-background:new 0 0 511.999 511.999;" xml:space="preserve">
<path style="fill:#1F84CE;" d="M7.921,399.704V111.392l248.079,67.06v324.615c-0.784,0-1.567-0.149-2.31-0.447L11.808,405.453
	C9.217,404.413,7.922,402.059,7.921,399.704z"/>
<path style="fill:#89BBE4;" d="M504.079,399.704V111.392l-248.079,67.06v324.615c0.785,0,1.568-0.149,2.311-0.447l241.883-97.167
	C502.783,404.413,504.079,402.059,504.079,399.704z"/>
<path style="fill:#ACDFEA;" d="M249.395,212.581l-237.587-95.44c-5.182-2.083-5.182-9.417,0-11.5L249.395,10.2
	c4.239-1.702,8.972-1.702,13.211,0l237.587,95.441c5.181,2.083,5.181,9.417,0,11.5l-237.587,95.44
	C258.367,214.284,253.634,214.284,249.395,212.581z"/>
<path style="fill:#F9C526;" d="M71.007,242.653l80.34,32.273c15.685,6.301,32.77-5.248,32.77-22.152l0,0
	c0-9.749-5.927-18.518-14.973-22.152l-80.34-32.273c-15.686-6.301-32.77,5.248-32.77,22.152l0,0
	C56.035,230.25,61.962,239.018,71.007,242.653z"/>
<path style="opacity:0.3;fill:#E28922;enable-background:new    ;" d="M169.144,230.622l-80.34-32.273
	c-14.595-5.863-30.396,3.733-32.522,18.714c6.399-5.256,15.444-7.199,24.073-3.733l80.34,32.273
	c9.046,3.633,14.974,12.403,14.974,22.152c0,1.174-0.091,2.319-0.249,3.438c5.233-4.299,8.698-10.812,8.698-18.417v-0.001
	C184.119,243.026,178.191,234.256,169.144,230.622z"/>
<path style="fill:#FFFFFF;" d="M454.905,256.481l-145.323,58.377c-3.401,1.367-5.628,4.662-5.628,8.325v74.278
	c0,6.352,6.421,10.693,12.316,8.325l145.323-58.377c3.4-1.366,5.627-4.662,5.627-8.325v-74.278
	C467.22,258.454,460.799,254.114,454.905,256.481z"/>
<path style="fill:#FB7686;" d="M339.014,358.823c-3.139,0-6.11-1.879-7.353-4.97c-1.631-4.06,0.338-8.672,4.398-10.302l93.15-37.42
	c4.062-1.631,8.672,0.338,10.302,4.397c1.632,4.06-0.337,8.673-4.397,10.302l-93.15,37.42
	C340.997,358.638,339.998,358.823,339.014,358.823z"/>
<g>
	<polygon style="fill:#54B8AC;" points="152.514,49.119 97.673,71.149 356.178,174.992 411.019,152.963 	"/>
	<polygon style="fill:#54B8AC;" points="356.178,243.811 385.587,212.776 411.019,221.781 411.019,152.963 356.178,174.992 	"/>
</g>
<path d="M503.146,98.292L265.558,2.851c-6.104-2.452-13.009-2.452-19.117,0L8.855,98.292C3.476,100.453,0,105.595,0,111.392v288.316
	c0.002,5.795,3.479,10.936,8.855,13.096l241.881,97.166c1.68,0.676,3.451,1.018,5.263,1.018c1.812,0,3.584-0.342,5.263-1.017
	l241.883-97.167c5.379-2.161,8.854-7.303,8.854-13.099V111.392C512,105.595,508.524,100.454,503.146,98.292z M252.347,17.551
	c2.335-0.938,4.974-0.937,7.305,0l233.604,93.841l-82.239,33.036L173.763,49.119L252.347,17.551z M152.513,57.655l237.256,95.308
	l-33.591,13.494L118.923,71.149L152.513,57.655z M403.098,164.682v45.893l-14.866-5.265c-2.95-1.043-6.239-0.255-8.394,2.018
	L364.1,223.938v-43.59L403.098,164.682z M248.079,491.83L15.842,398.538v-271.24l230.601,92.634
	c0.539,0.215,1.088,0.391,1.637,0.568v271.33H248.079z M259.653,205.232c-2.331,0.938-4.97,0.939-7.305,0l-233.604-93.84
	l78.929-31.706l237.256,95.308L259.653,205.232z M496.158,398.538L263.921,491.83V220.501c0.549-0.178,1.098-0.353,1.638-0.569
	l82.699-33.221v57.1c0,3.242,1.976,6.157,4.989,7.358c0.951,0.379,1.945,0.563,2.93,0.563c2.133-0.001,4.225-0.863,5.752-2.473
	l25.867-27.299l20.578,7.288c2.427,0.859,5.117,0.486,7.215-0.998c2.101-1.485,3.35-3.896,3.35-6.469v-63.464l77.219-31.02V398.538z
	"/>
<g>
</g>
<g>
</g>
<g>
</g>
<g>
</g>
<g>
</g>
<g>
</g>
<g>
</g>
<g>
</g>
<g>
</g>
<g>
</g>
<g>
</g>
<g>
</g>
<g>
</g>
<g>
</g>
<g>
</g>
</svg>
